<svg width="121" height="55" viewBox="0 0 121 55" fill="none" xmlns="http://www.w3.org/2000/svg">
<path d="M2.964 13.692H8.474V39H2.964V13.692ZM13.8997 19.43H19.1437V22.812C19.9544 21.4693 20.8917 20.4813 21.9557 19.848C23.0197 19.2147 24.261 18.898 25.6797 18.898C27.7824 18.898 29.429 19.5313 30.6197 20.798C31.8104 22.0393 32.4057 23.7747 32.4057 26.004V39H27.0477V26.84C27.0477 25.8267 26.7944 25.0413 26.2877 24.484C25.781 23.9013 25.097 23.61 24.2357 23.61C23.2224 23.61 22.2597 23.99 21.3477 24.75C20.4357 25.51 19.739 26.4727 19.2577 27.638V39H13.8997V19.43ZM46.3968 39.57C44.4208 39.57 42.6728 39.1393 41.1528 38.278C39.6581 37.4167 38.4928 36.2133 37.6568 34.668C36.8208 33.0973 36.4028 31.286 36.4028 29.234C36.4028 27.182 36.8081 25.3833 37.6188 23.838C38.4548 22.2673 39.6201 21.0513 41.1148 20.19C42.6348 19.3287 44.3828 18.898 46.3588 18.898C48.3348 18.898 50.0701 19.3287 51.5648 20.19C53.0848 21.026 54.2501 22.2167 55.0608 23.762C55.8968 25.3073 56.3148 27.0933 56.3148 29.12C56.3148 31.172 55.8968 32.996 55.0608 34.592C54.2501 36.1627 53.0848 37.3913 51.5648 38.278C50.0701 39.1393 48.3475 39.57 46.3968 39.57ZM46.3588 34.934C47.7268 34.934 48.8161 34.4147 49.6268 33.376C50.4628 32.312 50.8808 30.9187 50.8808 29.196C50.8808 27.4733 50.4628 26.1053 49.6268 25.092C48.8161 24.0533 47.7268 23.534 46.3588 23.534C44.9908 23.534 43.8888 24.0533 43.0528 25.092C42.2421 26.1053 41.8368 27.4733 41.8368 29.196C41.8368 30.9187 42.2421 32.312 43.0528 33.376C43.8888 34.4147 44.9908 34.934 46.3588 34.934Z" fill="#292929"/>
<path d="M60.4764 13.692H65.9864V34.212H75.1064V39H60.4764V13.692ZM84.3918 39.57C82.3651 39.57 80.7564 38.7087 79.5658 36.986C78.3751 35.2633 77.7798 32.92 77.7798 29.956C77.7798 26.3587 78.6918 23.6227 80.5158 21.748C82.3398 19.848 84.9618 18.898 88.3818 18.898C90.3071 18.898 92.5618 19.202 95.1458 19.81V39H90.0538L90.1678 35.884H90.0158C89.3571 37.0747 88.5464 37.9867 87.5838 38.62C86.6464 39.2533 85.5824 39.57 84.3918 39.57ZM85.5318 34.896C86.3171 34.896 87.0898 34.478 87.8498 33.642C88.6098 32.806 89.3191 31.6913 89.9778 30.298V23.914C89.1671 23.686 88.3564 23.572 87.5458 23.572C86.0258 23.572 84.8731 24.0913 84.0878 25.13C83.3278 26.1687 82.9478 27.7013 82.9478 29.728C82.9478 31.324 83.1758 32.5907 83.6318 33.528C84.0878 34.44 84.7211 34.896 85.5318 34.896ZM107.621 39.57C105.594 39.57 103.2 39.266 100.439 38.658V11.26H105.721V21.33C107.215 19.7087 109.052 18.898 111.231 18.898C113.46 18.898 115.208 19.7467 116.475 21.444C117.741 23.116 118.375 25.4593 118.375 28.474C118.375 32.0713 117.45 34.82 115.601 36.72C113.751 38.62 111.091 39.57 107.621 39.57ZM108.191 34.896C109.761 34.896 110.952 34.3767 111.763 33.338C112.599 32.2993 113.017 30.7793 113.017 28.778C113.017 27.1313 112.738 25.852 112.181 24.94C111.649 24.028 110.889 23.572 109.901 23.572C109.09 23.572 108.33 23.8633 107.621 24.446C106.911 25.0033 106.278 25.8267 105.721 26.916V34.554C106.506 34.782 107.329 34.896 108.191 34.896Z" fill="#527C91"/>
<line x1="59.973" y1="47.5002" x2="115.6" y2="46.5002" stroke="#527C91" stroke-width="3"/>
</svg>
